<?xml version="1.0" encoding="utf-8"?>
<!-- Generator: Adobe Illustrator 18.1.1, SVG Export Plug-In . SVG Version: 6.00 Build 0)  -->
<svg version="1.1" id="Layer_1" xmlns="http://www.w3.org/2000/svg" xmlns:xlink="http://www.w3.org/1999/xlink" x="0px" y="0px"
	 viewBox="109 296 390 200" enable-background="new 109 296 390 200" xml:space="preserve">
<g>
	<g>
		<path fill="#FF5200" d="M484.9,491.2h-85c-7.9,0-14.1-6.2-14.1-14.1c0-7.9,6.2-14.1,14.1-14.1h85c7.9,0,14.1,6.2,14.1,14.1
			C499,484.9,492.5,491.2,484.9,491.2z"/>
	</g>
	<g>
		<path fill="#56565A" d="M183.9,383.8c-5.6,0-17.3-8.9-27.2-8.9c-5.4,0-10.3,2.6-10.3,8.5c0,14.1,52.6,12.1,52.6,46.5
			c0,20.1-17.1,35.7-43.1,35.7c-17.1,0-42.3-9.7-42.3-23.4c0-4.6,4.6-13.5,13.1-13.5c11.9,0,17.1,10.3,31.4,10.3
			c9.3,0,12.1-3,12.1-8.7c0-13.9-52.6-11.9-52.6-46.5c0-21,17.1-35.5,41.1-35.5c14.9,0,37.9,6.8,37.9,22
			C196.2,377.4,191,383.8,183.9,383.8z"/>
		<path fill="#56565A" d="M241.5,321c0,9.5-7.7,17.5-17.1,17.5c-9.1,0-17.1-8.3-17.1-17.5c0-8.7,8.1-16.7,17.1-16.7
			C233.5,304.2,241.5,312.1,241.5,321z M209.3,366.7c0-10.1,6.2-16.9,15.1-16.9c8.9,0,15.1,6.6,15.1,16.9v80.8
			c0,10.1-6.2,16.9-15.1,16.9c-8.9,0-15.1-6.6-15.1-16.9V366.7z"/>
		<path fill="#56565A" d="M288.3,321c0,9.5-7.7,17.5-17.1,17.5c-9.1,0-17.1-8.3-17.1-17.5c0-8.7,8.1-16.7,17.1-16.7
			C280.2,304.2,288.3,312.1,288.3,321z M256,366.7c0-10.1,6.2-16.9,15.1-16.9c8.9,0,15.1,6.6,15.1,16.9v80.8
			c0,10.1-6.2,16.9-15.1,16.9s-15.1-6.6-15.1-16.9L256,366.7L256,366.7z"/>
		<path fill="#56565A" d="M302.8,317.7c0-10.1,6.2-16.9,15.1-16.9c8.9,0,15.1,6.6,15.1,16.9v129.7c0,10.1-6.2,16.9-15.1,16.9
			c-8.9,0-15.1-6.6-15.1-16.9V317.7z"/>
		<path fill="#56565A" d="M381.7,321c0,9.5-7.7,17.5-17.1,17.5c-9.1,0-17.1-8.3-17.1-17.5c0-8.7,8.1-16.7,17.1-16.7
			S381.7,312.1,381.7,321z M349.5,366.7c0-10.1,6.2-16.9,15.1-16.9s15.1,6.6,15.1,16.9v80.8c0,10.1-6.2,16.9-15.1,16.9
			s-15.1-6.6-15.1-16.9V366.7z"/>
	</g>
</g>
</svg>
